<svg width="13" height="12" viewBox="0 0 13 12" fill="none" xmlns="http://www.w3.org/2000/svg">
<path fill-rule="evenodd" clip-rule="evenodd" d="M2.07105 1.05444C2.07109 0.789276 2.17644 0.534985 2.36394 0.347485C2.55144 0.159986 2.80573 0.0546315 3.0709 0.0545917L11.5562 0.0545922C11.8213 0.0546322 12.0756 0.159986 12.2631 0.347485C12.4506 0.534985 12.556 0.789277 12.556 1.05444L12.556 9.53972C12.5515 9.80189 12.4441 10.0518 12.2571 10.2356C12.0701 10.4194 11.8184 10.5223 11.5562 10.5223C11.294 10.5223 11.0423 10.4194 10.8552 10.2356C10.6682 10.0518 10.5609 9.80189 10.5563 9.53972L10.5563 3.4685L2.36379 11.661C2.17625 11.8486 1.9219 11.9539 1.65668 11.9539C1.39147 11.9539 1.13711 11.8486 0.949577 11.661C0.762041 11.4735 0.656684 11.2192 0.656684 10.9539C0.656684 10.6887 0.762041 10.4344 0.949577 10.2468L9.14212 2.05429L3.0709 2.05429C2.80573 2.05425 2.55144 1.9489 2.36394 1.7614C2.17644 1.5739 2.07109 1.3196 2.07105 1.05444Z" fill="white"/>
</svg>
